<?xml version="1.0" encoding="utf-8"?>
<!-- Svg Vector Icons : http://www.onlinewebfonts.com/icon -->
<!DOCTYPE svg PUBLIC "-//W3C//DTD SVG 1.1//EN" "http://www.w3.org/Graphics/SVG/1.1/DTD/svg11.dtd">
<svg version="1.1" xmlns="http://www.w3.org/2000/svg" xmlns:xlink="http://www.w3.org/1999/xlink" x="0px" y="0px" viewBox="0 0 1000 1000" enable-background="new 0 0 1000 1000" xml:space="preserve">
<metadata> Svg Vector Icons : http://www.onlinewebfonts.com/icon </metadata>
<g>
	<style>
		*{
		   fill:#64ffda;
		}
	</style>
	<path d="M499.9,885l17.3-20.1c12.9-15.1,315.3-371.1,315.3-539.3C832.5,151.6,683.3,10,500,10c-183.3,0-332.5,141.6-332.5,315.6c0,168.2,302.4,524.2,315.3,539.3L499.9,885z M657.5,342.5c0-86.9-70.7-157.5-157.5-157.5c-86.8,0-157.5,70.7-157.5,157.5c0,86.9,70.7,157.5,157.5,157.5C586.8,500,657.5,429.4,657.5,342.5z M377.5,342.5c0-67.5,55-122.5,122.5-122.5c67.6,0,122.5,55,122.5,122.5c0,67.6-55,122.5-122.5,122.5C432.5,465,377.5,410.1,377.5,342.5z M500.4,48.7c153.6,0,290.8,126.4,290.8,277.4c0,132-228.4,429.4-290.8,507.8C438.1,755.5,211,458.1,211,326.1C211,175.2,346.9,48.7,500.4,48.7z M657.1,780v20.6c95.1,17.3,153.9,48.8,153.9,78.1c0,43-127.7,91.1-311.1,91.1c-183.3,0-310.9-48.1-310.9-91.1c0-29.3,58.8-60.8,153.9-78V780c-98.8,16.8-175.4,50.3-175.4,98.6C167.5,951,338.8,990,500,990c161.2,0,332.5-39,332.5-111.4C832.5,830.3,755.9,796.8,657.1,780z"/></g>
</svg>